<svg xmlns="http://www.w3.org/2000/svg" xmlns:xlink="http://www.w3.org/1999/xlink" width="800" zoomAndPan="magnify" viewBox="0 0 600 599.999999" height="800" preserveAspectRatio="xMidYMid meet" version="1.0"><defs><clipPath id="f3d0e033dc"><path d="M 27.09375 385 L 39 385 L 39 436 L 27.09375 436 Z M 27.09375 385 " clip-rule="nonzero"/></clipPath><clipPath id="7d69af3d7a"><path d="M 54 403 L 66 403 L 66 453.648438 L 54 453.648438 Z M 54 403 " clip-rule="nonzero"/></clipPath><clipPath id="579c7b10d3"><path d="M 68 390 L 80 390 L 80 453.648438 L 68 453.648438 Z M 68 390 " clip-rule="nonzero"/></clipPath><clipPath id="918b2b4d95"><path d="M 424 146.148438 L 436 146.148438 L 436 231 L 424 231 Z M 424 146.148438 " clip-rule="nonzero"/></clipPath><clipPath id="37e11d9f5f"><path d="M 562 152 L 573.09375 152 L 573.09375 220 L 562 220 Z M 562 152 " clip-rule="nonzero"/></clipPath></defs><g clip-path="url(#f3d0e033dc)"><path fill="#267865" d="M 37.019531 394.65625 L 33.792969 394.65625 L 33.792969 387.085938 C 33.792969 386.46875 33.28125 385.957031 32.667969 385.957031 C 32.054688 385.957031 31.542969 386.46875 31.542969 387.085938 L 31.542969 394.65625 L 28.261719 394.65625 C 27.648438 394.65625 27.136719 395.167969 27.136719 395.78125 L 27.136719 426.070312 C 27.136719 426.6875 27.648438 427.199219 28.261719 427.199219 L 31.488281 427.199219 L 31.488281 434.769531 C 31.488281 435.382812 32.003906 435.894531 32.617188 435.894531 C 33.230469 435.894531 33.742188 435.382812 33.742188 434.769531 L 33.742188 427.199219 L 36.96875 427.199219 C 37.585938 427.199219 38.097656 426.6875 38.097656 426.070312 L 38.097656 395.78125 C 38.199219 395.167969 37.6875 394.65625 37.019531 394.65625 Z M 37.019531 394.65625 " fill-opacity="1" fill-rule="nonzero"/></g><g clip-path="url(#7d69af3d7a)"><path fill="#267865" d="M 64.472656 411.59375 L 61.246094 411.59375 L 61.246094 404.789062 C 61.246094 404.171875 60.734375 403.660156 60.121094 403.660156 C 59.503906 403.660156 58.992188 404.171875 58.992188 404.789062 L 58.992188 411.59375 L 55.765625 411.59375 C 55.152344 411.59375 54.640625 412.105469 54.640625 412.71875 L 54.640625 443.773438 C 54.640625 444.390625 55.152344 444.902344 55.765625 444.902344 L 58.992188 444.902344 L 58.992188 452.472656 C 58.992188 453.085938 59.503906 453.597656 60.121094 453.597656 C 60.734375 453.597656 61.246094 453.085938 61.246094 452.472656 L 61.246094 444.953125 L 64.472656 444.953125 C 65.085938 444.953125 65.601562 444.441406 65.601562 443.828125 L 65.601562 412.769531 C 65.601562 412.105469 65.085938 411.59375 64.472656 411.59375 Z M 64.472656 411.59375 " fill-opacity="1" fill-rule="nonzero"/></g><path fill="#267865" d="M 91.875 401.769531 L 88.648438 401.769531 L 88.648438 370.25 C 88.648438 369.636719 88.136719 369.125 87.519531 369.125 C 86.90625 369.125 86.394531 369.636719 86.394531 370.25 L 86.394531 401.71875 L 83.167969 401.71875 C 82.550781 401.71875 82.039062 402.230469 82.039062 402.84375 L 82.039062 412.871094 C 82.039062 413.484375 82.550781 413.996094 83.167969 413.996094 L 86.394531 413.996094 L 86.394531 417.886719 C 86.394531 418.5 86.90625 419.011719 87.519531 419.011719 C 88.136719 419.011719 88.648438 418.5 88.648438 417.886719 L 88.648438 413.996094 L 91.875 413.996094 C 92.488281 413.996094 93 413.484375 93 412.871094 L 93 402.84375 C 93.050781 402.28125 92.539062 401.769531 91.875 401.769531 Z M 91.875 401.769531 " fill-opacity="1" fill-rule="nonzero"/><path fill="#267865" d="M 146.777344 304.148438 L 143.550781 304.148438 L 143.550781 301.535156 C 143.550781 300.921875 143.039062 300.410156 142.425781 300.410156 C 141.808594 300.410156 141.296875 300.921875 141.296875 301.535156 L 141.296875 304.148438 L 138.070312 304.148438 C 137.457031 304.148438 136.945312 304.65625 136.945312 305.273438 L 136.945312 317.039062 C 136.945312 317.652344 137.457031 318.164062 138.070312 318.164062 L 141.296875 318.164062 L 141.296875 320.773438 C 141.296875 321.390625 141.808594 321.902344 142.425781 321.902344 C 143.039062 321.902344 143.550781 321.390625 143.550781 320.773438 L 143.550781 318.164062 L 146.777344 318.164062 C 147.394531 318.164062 147.90625 317.652344 147.90625 317.039062 L 147.90625 305.273438 C 147.90625 304.65625 147.394531 304.148438 146.777344 304.148438 Z M 146.777344 304.148438 " fill-opacity="1" fill-rule="nonzero"/><path fill="#267865" d="M 174.179688 287.058594 L 170.953125 287.058594 L 170.953125 267.410156 C 170.953125 266.796875 170.441406 266.285156 169.824219 266.285156 C 169.210938 266.285156 168.699219 266.796875 168.699219 267.410156 L 168.699219 287.058594 L 165.421875 287.058594 C 164.804688 287.058594 164.292969 287.570312 164.292969 288.183594 L 164.292969 341.90625 C 164.292969 342.519531 164.804688 343.03125 165.421875 343.03125 L 168.648438 343.03125 L 168.648438 355.363281 C 168.648438 355.976562 169.160156 356.488281 169.773438 356.488281 C 170.390625 356.488281 170.902344 355.976562 170.902344 355.363281 L 170.902344 343.03125 L 174.128906 343.03125 C 174.742188 343.03125 175.253906 342.519531 175.253906 341.90625 L 175.253906 288.183594 C 175.304688 287.570312 174.792969 287.058594 174.179688 287.058594 Z M 174.179688 287.058594 " fill-opacity="1" fill-rule="nonzero"/><path fill="#267865" d="M 201.632812 333.769531 L 198.40625 333.769531 L 198.40625 325.992188 C 198.40625 325.378906 197.890625 324.867188 197.277344 324.867188 C 196.664062 324.867188 196.152344 325.378906 196.152344 325.992188 L 196.152344 333.769531 L 192.925781 333.769531 C 192.308594 333.769531 191.796875 334.28125 191.796875 334.898438 L 191.796875 364.980469 C 191.796875 365.59375 192.308594 366.105469 192.925781 366.105469 L 196.152344 366.105469 L 196.152344 373.679688 C 196.152344 374.292969 196.664062 374.804688 197.277344 374.804688 C 197.890625 374.804688 198.40625 374.292969 198.40625 373.679688 L 198.40625 366.105469 L 201.632812 366.105469 C 202.246094 366.105469 202.757812 365.59375 202.757812 364.980469 L 202.757812 334.898438 C 202.757812 334.28125 202.246094 333.769531 201.632812 333.769531 Z M 201.632812 333.769531 " fill-opacity="1" fill-rule="nonzero"/><path fill="#267865" d="M 215.304688 366.105469 L 212.078125 366.105469 L 212.078125 349.886719 C 212.078125 349.273438 211.566406 348.761719 210.953125 348.761719 C 210.339844 348.761719 209.824219 349.273438 209.824219 349.886719 L 209.824219 366.105469 L 206.597656 366.105469 C 205.984375 366.105469 205.472656 366.617188 205.472656 367.234375 L 205.472656 422.695312 C 205.472656 423.308594 205.984375 423.820312 206.597656 423.820312 L 209.824219 423.820312 L 209.824219 434.769531 C 209.824219 435.382812 210.339844 435.894531 210.953125 435.894531 C 211.566406 435.894531 212.078125 435.382812 212.078125 434.769531 L 212.078125 423.820312 L 215.304688 423.820312 C 215.921875 423.820312 216.433594 423.308594 216.433594 422.695312 L 216.433594 367.285156 C 216.484375 366.617188 215.972656 366.105469 215.304688 366.105469 Z M 215.304688 366.105469 " fill-opacity="1" fill-rule="nonzero"/><path fill="#267865" d="M 229.03125 423.820312 L 225.804688 423.820312 L 225.804688 422.4375 C 225.804688 421.824219 225.292969 421.3125 224.679688 421.3125 C 224.0625 421.3125 223.550781 421.824219 223.550781 422.4375 L 223.550781 423.820312 L 220.324219 423.820312 C 219.710938 423.820312 219.199219 424.332031 219.199219 424.945312 L 219.199219 432.210938 C 219.199219 432.824219 219.710938 433.335938 220.324219 433.335938 L 223.550781 433.335938 L 223.550781 434.71875 C 223.550781 435.332031 224.0625 435.84375 224.679688 435.84375 C 225.292969 435.84375 225.804688 435.332031 225.804688 434.71875 L 225.804688 433.335938 L 229.03125 433.335938 C 229.648438 433.335938 230.160156 432.824219 230.160156 432.210938 L 230.160156 424.996094 C 230.160156 424.332031 229.648438 423.820312 229.03125 423.820312 Z M 229.03125 423.820312 " fill-opacity="1" fill-rule="nonzero"/><path fill="#267865" d="M 256.484375 359.96875 L 253.257812 359.96875 L 253.257812 353.058594 C 253.257812 352.445312 252.746094 351.933594 252.128906 351.933594 C 251.515625 351.933594 251.003906 352.445312 251.003906 353.058594 L 251.003906 359.96875 L 247.777344 359.96875 C 247.164062 359.96875 246.652344 360.480469 246.652344 361.09375 L 246.652344 366.363281 C 246.652344 366.976562 247.164062 367.488281 247.777344 367.488281 L 251.003906 367.488281 L 251.003906 376.1875 C 251.003906 376.800781 251.515625 377.3125 252.128906 377.3125 C 252.746094 377.3125 253.257812 376.800781 253.257812 376.1875 L 253.257812 367.488281 L 256.484375 367.488281 C 257.097656 367.488281 257.609375 366.976562 257.609375 366.363281 L 257.609375 361.09375 C 257.609375 360.480469 257.097656 359.96875 256.484375 359.96875 Z M 256.484375 359.96875 " fill-opacity="1" fill-rule="nonzero"/><path fill="#267865" d="M 270.210938 367.488281 L 266.984375 367.488281 L 266.984375 359.917969 C 266.984375 359.300781 266.472656 358.789062 265.855469 358.789062 C 265.242188 358.789062 264.730469 359.300781 264.730469 359.917969 L 264.730469 367.488281 L 261.503906 367.488281 C 260.890625 367.488281 260.375 368 260.375 368.613281 L 260.375 398.902344 C 260.375 399.519531 260.890625 400.027344 261.503906 400.027344 L 264.730469 400.027344 L 264.730469 407.601562 C 264.730469 408.214844 265.242188 408.726562 265.855469 408.726562 C 266.472656 408.726562 266.984375 408.214844 266.984375 407.601562 L 266.984375 400.027344 L 270.210938 400.027344 C 270.824219 400.027344 271.335938 399.515625 271.335938 398.902344 L 271.335938 368.613281 C 271.335938 368 270.824219 367.488281 270.210938 367.488281 Z M 270.210938 367.488281 " fill-opacity="1" fill-rule="nonzero"/><path fill="#267865" d="M 311.335938 307.320312 L 308.109375 307.320312 L 308.109375 305.476562 C 308.109375 304.863281 307.597656 304.351562 306.984375 304.351562 C 306.367188 304.351562 305.855469 304.863281 305.855469 305.476562 L 305.855469 307.320312 L 302.628906 307.320312 C 302.015625 307.320312 301.503906 307.832031 301.503906 308.445312 L 301.503906 344.464844 C 301.503906 345.078125 302.015625 345.589844 302.628906 345.589844 L 305.855469 345.589844 L 305.855469 353.164062 C 305.855469 353.777344 306.367188 354.289062 306.984375 354.289062 C 307.597656 354.289062 308.109375 353.777344 308.109375 353.164062 L 308.109375 345.589844 L 311.335938 345.589844 C 311.953125 345.589844 312.464844 345.078125 312.464844 344.464844 L 312.464844 308.445312 C 312.464844 307.832031 311.953125 307.320312 311.335938 307.320312 Z M 311.335938 307.320312 " fill-opacity="1" fill-rule="nonzero"/><path fill="#267865" d="M 325.0625 345.589844 L 321.835938 345.589844 L 321.835938 338.425781 C 321.835938 337.8125 321.324219 337.300781 320.710938 337.300781 C 320.09375 337.300781 319.582031 337.8125 319.582031 338.425781 L 319.582031 345.589844 L 316.355469 345.589844 C 315.742188 345.589844 315.230469 346.101562 315.230469 346.714844 L 315.230469 377.414062 C 315.230469 378.027344 315.742188 378.539062 316.355469 378.539062 L 319.582031 378.539062 L 319.582031 400.234375 C 319.582031 400.847656 320.09375 401.359375 320.710938 401.359375 C 321.324219 401.359375 321.835938 400.847656 321.835938 400.234375 L 321.835938 378.539062 L 325.0625 378.539062 C 325.675781 378.539062 326.191406 378.027344 326.191406 377.414062 L 326.191406 346.714844 C 326.191406 346.101562 325.675781 345.589844 325.0625 345.589844 Z M 325.0625 345.589844 " fill-opacity="1" fill-rule="nonzero"/><path fill="#267865" d="M 366.191406 280.660156 L 362.964844 280.660156 L 362.964844 221.566406 C 362.964844 220.953125 362.453125 220.441406 361.835938 220.441406 C 361.222656 220.441406 360.710938 220.953125 360.710938 221.566406 L 360.710938 280.660156 L 357.484375 280.660156 C 356.867188 280.660156 356.355469 281.171875 356.355469 281.789062 L 356.355469 285.214844 C 356.355469 285.828125 356.867188 286.339844 357.484375 286.339844 L 360.710938 286.339844 L 360.710938 293.25 C 360.710938 293.863281 361.222656 294.375 361.835938 294.375 C 362.453125 294.375 362.964844 293.863281 362.964844 293.25 L 362.964844 286.339844 L 366.191406 286.339844 C 366.804688 286.339844 367.316406 285.828125 367.316406 285.214844 L 367.316406 281.789062 C 367.316406 281.171875 366.804688 280.660156 366.191406 280.660156 Z M 366.191406 280.660156 " fill-opacity="1" fill-rule="nonzero"/><path fill="#267865" d="M 379.917969 286.339844 L 376.6875 286.339844 L 376.6875 283.066406 C 376.6875 282.453125 376.175781 281.941406 375.5625 281.941406 C 374.949219 281.941406 374.4375 282.453125 374.4375 283.066406 L 374.4375 286.339844 L 371.210938 286.339844 C 370.59375 286.339844 370.082031 286.851562 370.082031 287.46875 L 370.082031 301.742188 C 370.082031 302.355469 370.59375 302.867188 371.210938 302.867188 L 374.4375 302.867188 L 374.4375 306.140625 C 374.4375 306.757812 374.949219 307.265625 375.5625 307.265625 C 376.175781 307.265625 376.6875 306.757812 376.6875 306.140625 L 376.6875 302.867188 L 379.917969 302.867188 C 380.53125 302.867188 381.042969 302.355469 381.042969 301.742188 L 381.042969 287.46875 C 381.042969 286.851562 380.53125 286.339844 379.917969 286.339844 Z M 379.917969 286.339844 " fill-opacity="1" fill-rule="nonzero"/><path fill="#267865" d="M 448.496094 157.558594 L 445.269531 157.558594 L 445.269531 151.523438 C 445.269531 150.90625 444.757812 150.398438 444.140625 150.398438 C 443.527344 150.398438 443.015625 150.90625 443.015625 151.523438 L 443.015625 157.558594 L 439.789062 157.558594 C 439.171875 157.558594 438.660156 158.070312 438.660156 158.683594 L 438.660156 245.101562 C 438.660156 245.714844 439.171875 246.226562 439.789062 246.226562 L 443.015625 246.226562 L 443.015625 265.261719 C 443.015625 265.875 443.527344 266.386719 444.140625 266.386719 C 444.757812 266.386719 445.269531 265.875 445.269531 265.261719 L 445.269531 246.226562 L 448.496094 246.226562 C 449.109375 246.226562 449.621094 245.714844 449.621094 245.101562 L 449.621094 158.683594 C 449.621094 158.070312 449.109375 157.558594 448.496094 157.558594 Z M 448.496094 157.558594 " fill-opacity="1" fill-rule="nonzero"/><path fill="#267865" d="M 462.167969 246.277344 L 458.941406 246.277344 L 458.941406 236.199219 C 458.941406 235.585938 458.429688 235.074219 457.816406 235.074219 C 457.203125 235.074219 456.691406 235.585938 456.691406 236.199219 L 456.691406 246.226562 L 453.464844 246.226562 C 452.847656 246.226562 452.335938 246.738281 452.335938 247.355469 L 452.335938 254.515625 C 452.335938 255.128906 452.847656 255.640625 453.464844 255.640625 L 456.691406 255.640625 L 456.691406 258.867188 C 456.691406 259.480469 457.203125 259.992188 457.816406 259.992188 C 458.429688 259.992188 458.941406 259.480469 458.941406 258.867188 L 458.941406 255.640625 L 462.167969 255.640625 C 462.785156 255.640625 463.296875 255.128906 463.296875 254.515625 L 463.296875 247.355469 C 463.347656 246.738281 462.835938 246.277344 462.167969 246.277344 Z M 462.167969 246.277344 " fill-opacity="1" fill-rule="nonzero"/><path fill="#267865" d="M 489.621094 217.269531 L 486.394531 217.269531 L 486.394531 208.417969 C 486.394531 207.804688 485.882812 207.292969 485.269531 207.292969 C 484.652344 207.292969 484.140625 207.804688 484.140625 208.417969 L 484.140625 217.269531 L 480.914062 217.269531 C 480.300781 217.269531 479.789062 217.78125 479.789062 218.394531 L 479.789062 220.441406 C 479.789062 221.054688 480.300781 221.566406 480.914062 221.566406 L 484.140625 221.566406 L 484.140625 231.082031 C 484.140625 231.695312 484.652344 232.207031 485.269531 232.207031 C 485.882812 232.207031 486.394531 231.695312 486.394531 231.082031 L 486.394531 221.566406 L 489.621094 221.566406 C 490.238281 221.566406 490.75 221.054688 490.75 220.441406 L 490.75 218.394531 C 490.75 217.730469 490.238281 217.269531 489.621094 217.269531 Z M 489.621094 217.269531 " fill-opacity="1" fill-rule="nonzero"/><path fill="#267865" d="M 503.347656 221.566406 L 494.589844 221.566406 C 493.976562 221.566406 493.464844 222.078125 493.464844 222.691406 L 493.464844 265.160156 C 493.464844 265.773438 493.976562 266.285156 494.589844 266.285156 L 497.816406 266.285156 L 497.816406 273.855469 C 497.816406 274.472656 498.328125 274.984375 498.941406 274.984375 C 499.558594 274.984375 500.070312 274.472656 500.070312 273.855469 L 500.070312 266.285156 L 503.296875 266.285156 C 503.910156 266.285156 504.421875 265.773438 504.421875 265.160156 L 504.421875 222.691406 C 504.476562 222.078125 503.960938 221.566406 503.347656 221.566406 Z M 503.347656 221.566406 " fill-opacity="1" fill-rule="nonzero"/><path fill="#267865" d="M 530.75 237.171875 L 527.523438 237.171875 L 527.523438 231.082031 C 527.523438 230.46875 527.011719 229.957031 526.394531 229.957031 C 525.78125 229.957031 525.269531 230.46875 525.269531 231.082031 L 525.269531 237.171875 L 522.042969 237.171875 C 521.425781 237.171875 520.914062 237.683594 520.914062 238.296875 L 520.914062 246.125 C 520.914062 246.738281 521.425781 247.25 522.042969 247.25 L 525.269531 247.25 L 525.269531 254.566406 C 525.269531 255.183594 525.78125 255.695312 526.394531 255.695312 C 527.011719 255.695312 527.523438 255.183594 527.523438 254.566406 L 527.523438 247.25 L 530.75 247.25 C 531.363281 247.25 531.875 246.738281 531.875 246.125 L 531.875 238.296875 C 531.925781 237.683594 531.414062 237.171875 530.75 237.171875 Z M 530.75 237.171875 " fill-opacity="1" fill-rule="nonzero"/><path fill="#267865" d="M 558.199219 199.566406 L 554.972656 199.566406 L 554.972656 195.164062 C 554.972656 194.550781 554.460938 194.039062 553.847656 194.039062 C 553.234375 194.039062 552.722656 194.550781 552.722656 195.164062 L 552.722656 199.566406 L 549.492188 199.566406 C 548.878906 199.566406 548.367188 200.078125 548.367188 200.691406 L 548.367188 206.371094 C 548.367188 206.984375 548.878906 207.496094 549.492188 207.496094 L 552.722656 207.496094 L 552.722656 218.648438 C 552.722656 219.265625 553.234375 219.777344 553.847656 219.777344 C 554.460938 219.777344 554.972656 219.265625 554.972656 218.648438 L 554.972656 207.496094 L 558.199219 207.496094 C 558.816406 207.496094 559.328125 206.984375 559.328125 206.371094 L 559.328125 200.691406 C 559.328125 200.078125 558.816406 199.566406 558.199219 199.566406 Z M 558.199219 199.566406 " fill-opacity="1" fill-rule="nonzero"/><path fill="#cd6359" d="M 50.746094 411.59375 L 47.519531 411.59375 L 47.519531 408.472656 C 47.519531 407.855469 47.007812 407.347656 46.394531 407.347656 C 45.777344 407.347656 45.265625 407.855469 45.265625 408.472656 L 45.265625 411.59375 L 41.988281 411.59375 C 41.375 411.59375 40.863281 412.105469 40.863281 412.71875 L 40.863281 426.070312 C 40.863281 426.6875 41.375 427.199219 41.988281 427.199219 L 45.214844 427.199219 L 45.214844 430.726562 C 45.214844 431.34375 45.726562 431.855469 46.34375 431.855469 C 46.957031 431.855469 47.46875 431.34375 47.46875 430.726562 L 47.46875 427.199219 L 50.695312 427.199219 C 51.3125 427.199219 51.824219 426.6875 51.824219 426.070312 L 51.824219 412.71875 C 51.875 412.105469 51.363281 411.59375 50.746094 411.59375 Z M 50.746094 411.59375 " fill-opacity="1" fill-rule="nonzero"/><g clip-path="url(#579c7b10d3)"><path fill="#cd6359" d="M 78.199219 401.769531 L 74.972656 401.769531 L 74.972656 391.996094 C 74.972656 391.382812 74.460938 390.871094 73.847656 390.871094 C 73.230469 390.871094 72.71875 391.382812 72.71875 391.996094 L 72.71875 401.769531 L 69.492188 401.769531 C 68.878906 401.769531 68.367188 402.28125 68.367188 402.894531 L 68.367188 443.828125 C 68.367188 444.441406 68.878906 444.953125 69.492188 444.953125 L 72.71875 444.953125 L 72.71875 452.523438 C 72.71875 453.136719 73.230469 453.648438 73.847656 453.648438 C 74.460938 453.648438 74.972656 453.136719 74.972656 452.523438 L 74.972656 444.953125 L 78.199219 444.953125 C 78.8125 444.953125 79.324219 444.441406 79.324219 443.828125 L 79.324219 402.894531 C 79.324219 402.28125 78.8125 401.769531 78.199219 401.769531 Z M 78.199219 401.769531 " fill-opacity="1" fill-rule="nonzero"/></g><path fill="#cd6359" d="M 105.601562 394.65625 L 102.375 394.65625 L 102.375 387.085938 C 102.375 386.46875 101.863281 385.957031 101.246094 385.957031 C 100.632812 385.957031 100.121094 386.46875 100.121094 387.085938 L 100.121094 394.65625 L 96.894531 394.65625 C 96.277344 394.65625 95.765625 395.167969 95.765625 395.78125 L 95.765625 412.921875 C 95.765625 413.535156 96.277344 414.046875 96.894531 414.046875 L 100.121094 414.046875 L 100.121094 434.769531 C 100.121094 435.382812 100.632812 435.894531 101.246094 435.894531 C 101.863281 435.894531 102.375 435.382812 102.375 434.769531 L 102.375 414.046875 L 105.601562 414.046875 C 106.214844 414.046875 106.726562 413.535156 106.726562 412.921875 L 106.726562 395.78125 C 106.726562 395.167969 106.214844 394.65625 105.601562 394.65625 Z M 105.601562 394.65625 " fill-opacity="1" fill-rule="nonzero"/><path fill="#cd6359" d="M 119.328125 325.175781 L 116.097656 325.175781 L 116.097656 306.703125 C 116.097656 306.089844 115.585938 305.578125 114.972656 305.578125 C 114.359375 305.578125 113.847656 306.089844 113.847656 306.703125 L 113.847656 325.175781 L 110.621094 325.175781 C 110.003906 325.175781 109.492188 325.6875 109.492188 326.300781 L 109.492188 393.480469 C 109.492188 394.09375 110.003906 394.605469 110.621094 394.605469 L 113.847656 394.605469 L 113.847656 417.117188 C 113.847656 417.730469 114.359375 418.242188 114.972656 418.242188 C 115.585938 418.242188 116.097656 417.730469 116.097656 417.117188 L 116.097656 394.605469 L 119.328125 394.605469 C 119.941406 394.605469 120.453125 394.09375 120.453125 393.480469 L 120.453125 326.300781 C 120.453125 325.6875 119.941406 325.175781 119.328125 325.175781 Z M 119.328125 325.175781 " fill-opacity="1" fill-rule="nonzero"/><path fill="#cd6359" d="M 133.050781 305.628906 L 129.824219 305.628906 L 129.824219 300.667969 C 129.824219 300.054688 129.3125 299.542969 128.699219 299.542969 C 128.085938 299.542969 127.570312 300.054688 127.570312 300.667969 L 127.570312 305.628906 L 124.34375 305.628906 C 123.730469 305.628906 123.21875 306.140625 123.21875 306.757812 L 123.21875 324.050781 C 123.21875 324.664062 123.730469 325.175781 124.34375 325.175781 L 127.570312 325.175781 L 127.570312 333.515625 C 127.570312 334.128906 128.085938 334.640625 128.699219 334.640625 C 129.3125 334.640625 129.824219 334.128906 129.824219 333.515625 L 129.824219 325.175781 L 133.050781 325.175781 C 133.667969 325.175781 134.179688 324.664062 134.179688 324.050781 L 134.179688 306.757812 C 134.179688 306.089844 133.667969 305.628906 133.050781 305.628906 Z M 133.050781 305.628906 " fill-opacity="1" fill-rule="nonzero"/><path fill="#cd6359" d="M 160.453125 287.058594 L 157.226562 287.058594 L 157.226562 279.484375 C 157.226562 278.871094 156.714844 278.359375 156.101562 278.359375 C 155.484375 278.359375 154.972656 278.871094 154.972656 279.484375 L 154.972656 287.058594 L 151.746094 287.058594 C 151.132812 287.058594 150.621094 287.570312 150.621094 288.183594 L 150.621094 317.039062 C 150.621094 317.652344 151.132812 318.164062 151.746094 318.164062 L 154.972656 318.164062 L 154.972656 327.171875 C 154.972656 327.785156 155.484375 328.296875 156.101562 328.296875 C 156.714844 328.296875 157.226562 327.785156 157.226562 327.171875 L 157.226562 318.164062 L 160.453125 318.164062 C 161.066406 318.164062 161.578125 317.652344 161.578125 317.039062 L 161.578125 288.183594 C 161.632812 287.570312 161.117188 287.058594 160.453125 287.058594 Z M 160.453125 287.058594 " fill-opacity="1" fill-rule="nonzero"/><path fill="#cd6359" d="M 187.90625 333.769531 L 184.679688 333.769531 L 184.679688 329.011719 C 184.679688 328.398438 184.167969 327.886719 183.550781 327.886719 C 182.9375 327.886719 182.425781 328.398438 182.425781 329.011719 L 182.425781 333.769531 L 179.199219 333.769531 C 178.582031 333.769531 178.070312 334.28125 178.070312 334.898438 L 178.070312 341.90625 C 178.070312 342.519531 178.582031 343.03125 179.199219 343.03125 L 182.425781 343.03125 L 182.425781 349.988281 C 182.425781 350.605469 182.9375 351.117188 183.550781 351.117188 C 184.167969 351.117188 184.679688 350.605469 184.679688 349.988281 L 184.679688 343.03125 L 187.90625 343.03125 C 188.519531 343.03125 189.03125 342.519531 189.03125 341.90625 L 189.03125 334.898438 C 189.03125 334.28125 188.519531 333.769531 187.90625 333.769531 Z M 187.90625 333.769531 " fill-opacity="1" fill-rule="nonzero"/><path fill="#cd6359" d="M 242.757812 359.96875 L 239.53125 359.96875 L 239.53125 345.128906 C 239.53125 344.515625 239.019531 344.003906 238.40625 344.003906 C 237.789062 344.003906 237.277344 344.515625 237.277344 345.128906 L 237.277344 359.96875 L 234.050781 359.96875 C 233.4375 359.96875 232.925781 360.480469 232.925781 361.09375 L 232.925781 432.210938 C 232.925781 432.824219 233.4375 433.335938 234.050781 433.335938 L 237.277344 433.335938 L 237.277344 448.839844 C 237.277344 449.453125 237.789062 449.964844 238.40625 449.964844 C 239.019531 449.964844 239.53125 449.453125 239.53125 448.839844 L 239.53125 433.335938 L 242.757812 433.335938 C 243.371094 433.335938 243.886719 432.824219 243.886719 432.210938 L 243.886719 361.09375 C 243.886719 360.480469 243.371094 359.96875 242.757812 359.96875 Z M 242.757812 359.96875 " fill-opacity="1" fill-rule="nonzero"/><path fill="#cd6359" d="M 283.886719 339.195312 L 280.660156 339.195312 L 280.660156 325.992188 C 280.660156 325.378906 280.144531 324.867188 279.53125 324.867188 C 278.917969 324.867188 278.40625 325.378906 278.40625 325.992188 L 278.40625 339.195312 L 275.179688 339.195312 C 274.5625 339.195312 274.050781 339.707031 274.050781 340.320312 L 274.050781 398.953125 C 274.050781 399.570312 274.5625 400.082031 275.179688 400.082031 L 278.40625 400.082031 L 278.40625 418.296875 C 278.40625 418.910156 278.917969 419.421875 279.53125 419.421875 C 280.144531 419.421875 280.660156 418.910156 280.660156 418.296875 L 280.660156 400.082031 L 283.886719 400.082031 C 284.5 400.082031 285.011719 399.570312 285.011719 398.953125 L 285.011719 340.320312 C 285.0625 339.707031 284.550781 339.195312 283.886719 339.195312 Z M 283.886719 339.195312 " fill-opacity="1" fill-rule="nonzero"/><path fill="#cd6359" d="M 297.609375 307.320312 L 294.382812 307.320312 L 294.382812 299.746094 C 294.382812 299.132812 293.871094 298.621094 293.257812 298.621094 C 292.644531 298.621094 292.128906 299.132812 292.128906 299.746094 L 292.128906 307.320312 L 288.851562 307.320312 C 288.238281 307.320312 287.726562 307.832031 287.726562 308.445312 L 287.726562 338.070312 C 287.726562 338.683594 288.238281 339.195312 288.851562 339.195312 L 292.078125 339.195312 L 292.078125 347.433594 C 292.078125 348.046875 292.59375 348.558594 293.207031 348.558594 C 293.820312 348.558594 294.332031 348.046875 294.332031 347.433594 L 294.332031 339.195312 L 297.558594 339.195312 C 298.175781 339.195312 298.6875 338.683594 298.6875 338.070312 L 298.6875 308.445312 C 298.738281 307.832031 298.226562 307.320312 297.609375 307.320312 Z M 297.609375 307.320312 " fill-opacity="1" fill-rule="nonzero"/><path fill="#cd6359" d="M 338.738281 311.207031 L 335.511719 311.207031 L 335.511719 296.011719 C 335.511719 295.398438 335 294.886719 334.382812 294.886719 C 333.769531 294.886719 333.257812 295.398438 333.257812 296.011719 L 333.257812 311.207031 L 330.03125 311.207031 C 329.417969 311.207031 328.90625 311.71875 328.90625 312.332031 L 328.90625 377.414062 C 328.90625 378.027344 329.417969 378.539062 330.03125 378.539062 L 333.257812 378.539062 L 333.257812 387.699219 C 333.257812 388.3125 333.769531 388.824219 334.382812 388.824219 C 335 388.824219 335.511719 388.3125 335.511719 387.699219 L 335.511719 378.539062 L 338.738281 378.539062 C 339.351562 378.539062 339.863281 378.027344 339.863281 377.414062 L 339.863281 312.332031 C 339.914062 311.71875 339.402344 311.207031 338.738281 311.207031 Z M 338.738281 311.207031 " fill-opacity="1" fill-rule="nonzero"/><path fill="#cd6359" d="M 352.464844 280.660156 L 349.238281 280.660156 L 349.238281 273.089844 C 349.238281 272.476562 348.726562 271.964844 348.109375 271.964844 C 347.496094 271.964844 346.984375 272.476562 346.984375 273.089844 L 346.984375 280.660156 L 343.757812 280.660156 C 343.140625 280.660156 342.628906 281.171875 342.628906 281.789062 L 342.628906 310.082031 C 342.628906 310.695312 343.140625 311.207031 343.757812 311.207031 L 346.984375 311.207031 L 346.984375 320.773438 C 346.984375 321.390625 347.496094 321.902344 348.109375 321.902344 C 348.726562 321.902344 349.238281 321.390625 349.238281 320.773438 L 349.238281 311.207031 L 352.464844 311.207031 C 353.078125 311.207031 353.589844 310.695312 353.589844 310.082031 L 353.589844 281.789062 C 353.589844 281.171875 353.078125 280.660156 352.464844 280.660156 Z M 352.464844 280.660156 " fill-opacity="1" fill-rule="nonzero"/><path fill="#cd6359" d="M 393.640625 264.546875 L 390.414062 264.546875 L 390.414062 255.335938 C 390.414062 254.722656 389.902344 254.210938 389.289062 254.210938 C 388.675781 254.210938 388.160156 254.722656 388.160156 255.335938 L 388.160156 264.546875 L 384.933594 264.546875 C 384.320312 264.546875 383.808594 265.058594 383.808594 265.671875 L 383.808594 301.742188 C 383.808594 302.355469 384.320312 302.867188 384.933594 302.867188 L 388.160156 302.867188 L 388.160156 312.539062 C 388.160156 313.152344 388.675781 313.664062 389.289062 313.664062 C 389.902344 313.664062 390.414062 313.152344 390.414062 312.539062 L 390.414062 302.867188 L 393.640625 302.867188 C 394.257812 302.867188 394.769531 302.355469 394.769531 301.742188 L 394.769531 265.671875 C 394.769531 265.058594 394.257812 264.546875 393.640625 264.546875 Z M 393.640625 264.546875 " fill-opacity="1" fill-rule="nonzero"/><path fill="#cd6359" d="M 407.316406 246.484375 L 404.089844 246.484375 L 404.089844 241.519531 C 404.089844 240.90625 403.578125 240.394531 402.964844 240.394531 C 402.347656 240.394531 401.835938 240.90625 401.835938 241.519531 L 401.835938 246.484375 L 398.609375 246.484375 C 397.996094 246.484375 397.484375 246.996094 397.484375 247.609375 L 397.484375 263.367188 C 397.484375 263.980469 397.996094 264.492188 398.609375 264.492188 L 401.835938 264.492188 L 401.835938 282.757812 C 401.835938 283.375 402.347656 283.886719 402.964844 283.886719 C 403.578125 283.886719 404.089844 283.375 404.089844 282.757812 L 404.089844 264.492188 L 407.316406 264.492188 C 407.929688 264.492188 408.445312 263.980469 408.445312 263.367188 L 408.445312 247.609375 C 408.496094 246.996094 407.984375 246.484375 407.316406 246.484375 Z M 407.316406 246.484375 " fill-opacity="1" fill-rule="nonzero"/><path fill="#cd6359" d="M 421.042969 202.125 L 417.816406 202.125 L 417.816406 191.738281 C 417.816406 191.125 417.304688 190.613281 416.691406 190.613281 C 416.074219 190.613281 415.5625 191.125 415.5625 191.738281 L 415.5625 202.125 L 412.285156 202.125 C 411.671875 202.125 411.15625 202.636719 411.15625 203.25 L 411.15625 245.359375 C 411.15625 245.972656 411.671875 246.484375 412.285156 246.484375 L 415.511719 246.484375 L 415.511719 255.539062 C 415.511719 256.152344 416.023438 256.664062 416.636719 256.664062 C 417.253906 256.664062 417.765625 256.152344 417.765625 255.539062 L 417.765625 246.484375 L 420.992188 246.484375 C 421.605469 246.484375 422.117188 245.972656 422.117188 245.359375 L 422.117188 203.25 C 422.167969 202.636719 421.65625 202.125 421.042969 202.125 Z M 421.042969 202.125 " fill-opacity="1" fill-rule="nonzero"/><g clip-path="url(#918b2b4d95)"><path fill="#cd6359" d="M 434.769531 157.558594 L 431.542969 157.558594 L 431.542969 147.277344 C 431.542969 146.660156 431.03125 146.148438 430.414062 146.148438 C 429.800781 146.148438 429.289062 146.660156 429.289062 147.277344 L 429.289062 157.558594 L 426.0625 157.558594 C 425.449219 157.558594 424.933594 158.070312 424.933594 158.683594 L 424.933594 200.949219 C 424.933594 201.5625 425.449219 202.074219 426.0625 202.074219 L 429.289062 202.074219 L 429.289062 229.445312 C 429.289062 230.058594 429.800781 230.570312 430.414062 230.570312 C 431.03125 230.570312 431.542969 230.058594 431.542969 229.445312 L 431.542969 202.074219 L 434.769531 202.074219 C 435.382812 202.074219 435.894531 201.5625 435.894531 200.945312 L 435.894531 158.683594 C 435.894531 158.070312 435.382812 157.558594 434.769531 157.558594 Z M 434.769531 157.558594 " fill-opacity="1" fill-rule="nonzero"/></g><path fill="#cd6359" d="M 475.894531 221.566406 L 472.667969 221.566406 L 472.667969 213.996094 C 472.667969 213.378906 472.15625 212.867188 471.542969 212.867188 C 470.929688 212.867188 470.414062 213.378906 470.414062 213.996094 L 470.414062 221.566406 L 467.1875 221.566406 C 466.574219 221.566406 466.0625 222.078125 466.0625 222.691406 L 466.0625 254.363281 C 466.0625 254.976562 466.574219 255.488281 467.1875 255.488281 L 470.414062 255.488281 L 470.414062 261.679688 C 470.414062 262.292969 470.929688 262.804688 471.542969 262.804688 C 472.15625 262.804688 472.667969 262.292969 472.667969 261.679688 L 472.667969 255.488281 L 475.894531 255.488281 C 476.511719 255.488281 477.023438 254.976562 477.023438 254.363281 L 477.023438 222.691406 C 477.023438 222.078125 476.511719 221.566406 475.894531 221.566406 Z M 475.894531 221.566406 " fill-opacity="1" fill-rule="nonzero"/><path fill="#cd6359" d="M 517.074219 237.171875 L 513.847656 237.171875 L 513.847656 229.597656 C 513.847656 228.984375 513.335938 228.472656 512.71875 228.472656 C 512.105469 228.472656 511.59375 228.984375 511.59375 229.597656 L 511.59375 237.171875 L 508.367188 237.171875 C 507.753906 237.171875 507.242188 237.683594 507.242188 238.296875 L 507.242188 265.160156 C 507.242188 265.773438 507.753906 266.285156 508.367188 266.285156 L 511.59375 266.285156 L 511.59375 277.234375 C 511.59375 277.847656 512.105469 278.359375 512.71875 278.359375 C 513.335938 278.359375 513.847656 277.847656 513.847656 277.234375 L 513.847656 266.285156 L 517.074219 266.285156 C 517.6875 266.285156 518.199219 265.773438 518.199219 265.160156 L 518.199219 238.296875 C 518.199219 237.683594 517.6875 237.171875 517.074219 237.171875 Z M 517.074219 237.171875 " fill-opacity="1" fill-rule="nonzero"/><path fill="#cd6359" d="M 544.476562 199.566406 L 541.25 199.566406 L 541.25 188.003906 C 541.25 187.386719 540.734375 186.878906 540.121094 186.878906 C 539.507812 186.878906 538.996094 187.386719 538.996094 188.003906 L 538.996094 199.566406 L 535.71875 199.566406 C 535.101562 199.566406 534.589844 200.078125 534.589844 200.691406 L 534.589844 246.125 C 534.589844 246.738281 535.101562 247.25 535.71875 247.25 L 538.945312 247.25 L 538.945312 258.816406 C 538.945312 259.429688 539.457031 259.941406 540.070312 259.941406 C 540.683594 259.941406 541.195312 259.429688 541.195312 258.816406 L 541.195312 247.25 L 544.421875 247.25 C 545.039062 247.25 545.550781 246.738281 545.550781 246.125 L 545.550781 200.691406 C 545.601562 200.078125 545.089844 199.566406 544.476562 199.566406 Z M 544.476562 199.566406 " fill-opacity="1" fill-rule="nonzero"/><g clip-path="url(#37e11d9f5f)"><path fill="#cd6359" d="M 571.925781 164.414062 L 568.699219 164.414062 L 568.699219 154.027344 C 568.699219 153.414062 568.1875 152.902344 567.574219 152.902344 C 566.957031 152.902344 566.445312 153.414062 566.445312 154.027344 L 566.445312 164.414062 L 563.21875 164.414062 C 562.605469 164.414062 562.09375 164.925781 562.09375 165.542969 L 562.09375 206.371094 C 562.09375 206.984375 562.605469 207.496094 563.21875 207.496094 L 566.445312 207.496094 L 566.445312 217.882812 C 566.445312 218.496094 566.957031 219.007812 567.574219 219.007812 C 568.1875 219.007812 568.699219 218.496094 568.699219 217.882812 L 568.699219 207.496094 L 571.925781 207.496094 C 572.542969 207.496094 573.054688 206.984375 573.054688 206.371094 L 573.054688 165.542969 C 573.054688 164.925781 572.542969 164.414062 571.925781 164.414062 Z M 571.925781 164.414062 " fill-opacity="1" fill-rule="nonzero"/></g></svg>